<svg xmlns="http://www.w3.org/2000/svg" viewBox="0 0 1050.18 1019.48"><g id="Layer_2" data-name="Layer 2"><g id="Layer_1-2" data-name="Layer 1">
<use xlink:href="#shape"/>
<path id="shape" d="M525.33,1019.48c-11.93-16.54-23.44-32.47-34.94-48.42q-54-75-108-150c-2.74-3.83-5.87-4.42-10-4.42q-155.65.07-311.3.07c-18.27,0-33.95-5.55-46.3-19.27C3.91,785.33,0,770.9,0,754.86Q.18,592.53.06,430.21q0-184.68,0-369.35c0-23.33,9.32-41.34,29.56-53.28C39.17,2,49.71.09,60.66.09L310.31,0q105.06,0,210.1,0L764.92,0q112.49,0,225,.05c27.67,0,50,15.52,57.52,40.19a60.38,60.38,0,0,1,2.65,17.13q.2,350.6.1,701.2c0,31.93-23.94,57.38-55.85,57.77-51.19.63-102.4.26-153.59.28q-80.65,0-161.3-.09c-4.81,0-7.79,1.46-10.6,5.35q-69.08,95.49-138.41,190.78C528.92,1014.75,527.36,1016.77,525.33,1019.48ZM514.4,740.66a265.39,265.39,0,0,0,171.3-56.4,223.65,223.65,0,0,0,37.44-37c12.7-16.15,21.91-34.15,29.84-52.93,7.85-18.6,13.91-37.77,15.85-57.89,1.22-12.71.84-25.57,1.31-38.36.62-17.24-3.2-33.91-7.52-50.31-5.61-21.25-14-41.53-23.85-61.3-16-32.17-33.48-63.51-53.31-93.39-18.9-28.45-38.85-56.25-59.39-83.54-14.55-19.34-30.17-38-46.57-55.79-18.88-20.48-39.2-39.63-58.73-59.52-3-3.1-4.77-2.4-6.65.74-.79,1.3-1.5,2.66-2.21,4-6.37,12.09-12.32,24.42-19.15,36.24-17.68,30.58-39.31,58.36-61.67,85.59-23.19,28.26-46.64,56.32-69.44,84.9-17.28,21.66-33.33,44.35-45.79,69.17-10,19.95-19.09,40.43-27.57,61.09a227.11,227.11,0,0,0-16.55,66c-1.41,16-.15,32.37,1,48.5s5.74,31.84,12,46.8c23.31,55.88,64.09,95,118.35,120.19C438.49,734,476,742.26,514.4,740.66Z"/><path d="M405.78,351.62c-2.19,10.77-4.63,21.5-6.51,32.32-1.24,7.19-1.89,14.51-2.41,21.79q-.92,13-1.12,26c-.59,42.85,11.41,82.17,34.66,117.9,7.21,11.09,16.05,21.25,25.06,31a60.66,60.66,0,0,1,14.82,27.08C473.09,619,468,630.08,458,636.38c-10.71,6.79-22.83,8.54-34.84,8.15-11-.36-21-5.57-30.1-11.87C366.55,614.35,352,588.1,343.7,557.78c-4.23-15.41-6.86-31.26-4.68-47s6.13-31.68,10.47-47.18c7-25.11,18.51-48.43,31.15-71.14,7.13-12.83,14.72-25.41,22.13-38.08.65-1.12,1.49-2.13,2.25-3.19Z"/></g></g></svg>